<svg xmlns="http://www.w3.org/2000/svg" width="60" height="60" viewBox="0 0 24 24" fill="none">
<g clip-path="url(#clip0_8_64)">
<rect width="24" height="24" fill="white" fill-opacity="0.01"/>
<path fill-rule="evenodd" clip-rule="evenodd" d="M3 0H21C21.7956 0 22.5587 0.31607 23.1213 0.87868C23.6839 1.44129 24 2.20435 24 3V21C24 21.7956 23.6839 22.5587 23.1213 23.1213C22.5587 23.6839 21.7956 24 21 24H3C2.20435 24 1.44129 23.6839 0.87868 23.1213C0.31607 22.5587 0 21.7956 0 21L0 3C0 2.20435 0.31607 1.44129 0.87868 0.87868C1.44129 0.31607 2.20435 0 3 0V0ZM15.049 5L9.627 5.055L14.304 13.205L19.726 13.15L15.049 5ZM4 14.108L6.757 18.805L11.434 10.655L8.677 5.958L4 14.108ZM10.646 14.249L7.982 19H17.336L20 14.249H10.646Z" fill="#673AB7"/>
</g>
<defs>
<clipPath id="clip0_8_64">
<rect width="24" height="24" fill="white"/>
</clipPath>
</defs>
</svg>